M48
;DRILL file {KiCad 4.0.7-e2-6376~58~ubuntu16.04.1} date Sun Sep 24 14:21:03 2017
;FORMAT={-:-/ absolute / inch / decimal}
FMAT,2
INCH,TZ
T1C0.016
T2C0.024
T3C0.031
T4C0.035
T5C0.059
T6C0.075
T7C0.150
%
G90
G05
M72
T1
X5.8071Y-3.5433
X5.9646Y-4.1929
X6.2008Y-3.9173
X6.2008Y-4.4291
X6.2598Y-4.1732
X6.2992Y-4.0157
X6.2992Y-4.2126
X6.3386Y-3.7008
X6.6535Y-3.5236
X6.6535Y-3.7992
X6.6535Y-4.311
X7.2047Y-4.5276
X7.4803Y-4.1929
T2
X4.6063Y-3.5236
X4.6063Y-3.878
X4.7224Y-3.6201
X4.8228Y-3.4646
X6.7717Y-4.1732
X7.2835Y-3.4646
X7.2835Y-3.8976
X7.5984Y-3.6024
X7.5984Y-4.0551
T3
X7.5138Y-3.9015
X7.5139Y-3.752
T4
X3.811Y-3.3189
X4.0157Y-4.4764
X4.2126Y-4.4764
X4.4173Y-3.3189
T5
X5.Y-3.3961
X5.Y-3.9961
X5.Y-4.1961
X5.Y-4.3961
X5.3Y-3.3961
X5.3Y-3.9961
X5.3Y-4.1961
X5.3Y-4.3961
T6
X3.5433Y-4.8819
X3.9173Y-4.8819
X4.2913Y-4.8819
X5.1181Y-4.8819
X5.4921Y-4.8819
X5.8661Y-4.8819
X6.6929Y-4.8819
X7.0669Y-4.8819
X7.4409Y-4.8819
T7
X3.5039Y-3.3858
X3.5039Y-4.5276
X7.4803Y-3.3858
X7.4803Y-4.5276
T0
M30
